<svg width="26" height="26" viewBox="0 0 26 26" fill="none" xmlns="http://www.w3.org/2000/svg">
<path d="M11.6769 6.58368C12.021 6.58368 12.351 6.44498 12.5943 6.1981C12.8377 5.95121 12.9744 5.61636 12.9744 5.26721C12.9744 4.91806 12.8377 4.58321 12.5943 4.33632C12.351 4.08944 12.021 3.95074 11.6769 3.95074C11.3328 3.95074 11.0028 4.08944 10.7595 4.33632C10.5162 4.58321 10.3795 4.91806 10.3795 5.26721C10.3795 5.61636 10.5162 5.95121 10.7595 6.1981C11.0028 6.44498 11.3328 6.58368 11.6769 6.58368ZM12.5501 0.294236C12.2979 0.103208 11.9916 0 11.6769 0C11.3622 0 11.0559 0.103208 10.8037 0.294236L0.46059 8.12856C-0.415179 8.79141 0.0473565 10.2033 1.13915 10.2033H1.94615V18.1054C1.36379 18.3857 0.871769 18.828 0.527268 19.3807C0.182766 19.9335 -7.16165e-05 20.5741 2.10431e-08 21.2281V23.5319C2.10431e-08 23.9861 0.363282 24.3547 0.810897 24.3547H10.9452C10.6925 23.8365 10.5217 23.2812 10.4392 22.7091H1.62179V21.2281C1.62179 20.748 1.80975 20.2876 2.14431 19.9481C2.47887 19.6087 2.93263 19.418 3.40577 19.418H10.9452C11.3087 18.6725 11.8365 18.022 12.4878 17.517V10.2027H15.2449V16.4664C15.3529 16.4594 15.461 16.4559 15.5692 16.4559H16.8667V10.2027H19.7859V16.4559H21.4077V10.2027H22.2147C23.3071 10.2027 23.769 8.79075 22.8939 8.1279L12.5501 0.294236ZM10.866 17.7724H8.10897V10.2027H10.866V17.7724ZM6.48718 17.7724H3.56795V10.2027H6.48718V17.7724ZM2.60395 8.55707L11.6769 1.68575L20.7492 8.55773L2.60395 8.55707ZM15.7314 17.7724C15.1947 17.7655 14.662 17.8668 14.1641 18.0704C13.6663 18.2741 13.2133 18.576 12.8314 18.9587C12.4494 19.3413 12.1462 19.7971 11.9392 20.2997C11.7322 20.8022 11.6256 21.3414 11.6256 21.886C11.6256 22.4307 11.7322 22.9699 11.9392 23.4724C12.1462 23.9749 12.4494 24.4307 12.8314 24.8134C13.2133 25.1961 13.6663 25.498 14.1641 25.7016C14.662 25.9052 15.1947 26.0066 15.7314 25.9997H16.7045C16.9195 25.9997 17.1258 25.913 17.2779 25.7587C17.43 25.6044 17.5154 25.3951 17.5154 25.1769C17.5154 24.9587 17.43 24.7494 17.2779 24.5951C17.1258 24.4408 16.9195 24.3541 16.7045 24.3541H15.7314C15.0862 24.3541 14.4675 24.094 14.0112 23.6311C13.555 23.1682 13.2987 22.5404 13.2987 21.8857C13.2987 21.231 13.555 20.6032 14.0112 20.1403C14.4675 19.6774 15.0862 19.4173 15.7314 19.4173H16.7045C16.9195 19.4173 17.1258 19.3306 17.2779 19.1763C17.43 19.022 17.5154 18.8127 17.5154 18.5945C17.5154 18.3763 17.43 18.167 17.2779 18.0127C17.1258 17.8584 16.9195 17.7717 16.7045 17.7717L15.7314 17.7724ZM21.8942 17.7724C22.4309 17.7655 22.9637 17.8668 23.4615 18.0704C23.9593 18.2741 24.4123 18.576 24.7943 18.9587C25.1762 19.3413 25.4795 19.7971 25.6864 20.2997C25.8934 20.8022 26 21.3414 26 21.886C26 22.4307 25.8934 22.9699 25.6864 23.4724C25.4795 23.9749 25.1762 24.4307 24.7943 24.8134C24.4123 25.1961 23.9593 25.498 23.4615 25.7016C22.9637 25.9052 22.4309 26.0066 21.8942 25.9997H20.9212C20.7061 25.9997 20.4998 25.913 20.3478 25.7587C20.1957 25.6044 20.1103 25.3951 20.1103 25.1769C20.1103 24.9587 20.1957 24.7494 20.3478 24.5951C20.4998 24.4408 20.7061 24.3541 20.9212 24.3541H21.8942C22.5394 24.3541 23.1582 24.094 23.6144 23.6311C24.0706 23.1682 24.3269 22.5404 24.3269 21.8857C24.3269 21.231 24.0706 20.6032 23.6144 20.1403C23.1582 19.6774 22.5394 19.4173 21.8942 19.4173H20.9212C20.7061 19.4173 20.4998 19.3306 20.3478 19.1763C20.1957 19.022 20.1103 18.8127 20.1103 18.5945C20.1103 18.3763 20.1957 18.167 20.3478 18.0127C20.4998 17.8584 20.7061 17.7717 20.9212 17.7717L21.8942 17.7724ZM14.9205 21.8864C14.9205 21.4315 15.2838 21.0636 15.7314 21.0636H21.8942C22.1093 21.0636 22.3155 21.1502 22.4676 21.3045C22.6197 21.4589 22.7051 21.6681 22.7051 21.8864C22.7051 22.1046 22.6197 22.3139 22.4676 22.4682C22.3155 22.6225 22.1093 22.7091 21.8942 22.7091H15.7314C15.2838 22.7091 14.9205 22.3405 14.9205 21.8864Z" fill="#13D0CA"/>
</svg>
