<svg width="31" height="26" viewBox="0 0 31 26" fill="none" xmlns="http://www.w3.org/2000/svg">
<path fill-rule="evenodd" clip-rule="evenodd" d="M9.66892 2.10811C9.57394 2.10811 9.48286 2.14513 9.4157 2.21102C9.34854 2.27691 9.31081 2.36628 9.31081 2.45946V5.27027C9.31081 5.85241 8.82982 6.32432 8.23649 6.32432C7.64315 6.32432 7.16216 5.85241 7.16216 5.27027V2.45946C7.16216 1.80717 7.42627 1.1816 7.89637 0.720359C8.36648 0.259121 9.00409 0 9.66892 0H28.2905C28.9554 0 29.593 0.25912 30.0631 0.720359C30.5332 1.1816 30.7973 1.80717 30.7973 2.45946V15.1081C30.7973 15.7604 30.5332 16.386 30.0631 16.8472C29.593 17.3084 28.9554 17.5676 28.2905 17.5676H26.8581C26.2648 17.5676 25.7838 17.0957 25.7838 16.5135C25.7838 15.9314 26.2648 15.4595 26.8581 15.4595H28.2905C28.3855 15.4595 28.4766 15.4224 28.5438 15.3566C28.6109 15.2907 28.6486 15.2013 28.6486 15.1081V2.45946C28.6486 2.36627 28.6109 2.27691 28.5438 2.21102C28.4766 2.14513 28.3855 2.10811 28.2905 2.10811H9.66892Z" fill="#8396A4"/>
<path fill-rule="evenodd" clip-rule="evenodd" d="M2.50676 10.5405C2.30898 10.5405 2.14865 10.6978 2.14865 10.8919V23.5405C2.14865 23.7346 2.30898 23.8919 2.50676 23.8919H21.1284C21.3262 23.8919 21.4865 23.7346 21.4865 23.5405V10.8919C21.4865 10.6978 21.3262 10.5405 21.1284 10.5405H2.50676ZM0 10.8919C0 9.53357 1.12231 8.43243 2.50676 8.43243H21.1284C22.5128 8.43243 23.6351 9.53357 23.6351 10.8919V23.5405C23.6351 24.8989 22.5128 26 21.1284 26H2.50676C1.12231 26 0 24.8989 0 23.5405V10.8919Z" fill="#8396A4"/>
<path fill-rule="evenodd" clip-rule="evenodd" d="M1.07432 11.2432C1.66766 11.2432 2.14865 11.7152 2.14865 12.2973V14.7568H21.4865V12.2973C21.4865 11.7152 21.9675 11.2432 22.5608 11.2432C23.1541 11.2432 23.6351 11.7152 23.6351 12.2973V20.7297C23.6351 21.3119 23.1541 21.7838 22.5608 21.7838C21.9675 21.7838 21.4865 21.3119 21.4865 20.7297V16.8649H2.14865V20.7297C2.14865 21.3119 1.66766 21.7838 1.07432 21.7838C0.480991 21.7838 0 21.3119 0 20.7297V12.2973C0 11.7152 0.480991 11.2432 1.07432 11.2432ZM5.01351 20.027C5.01351 19.4449 5.4945 18.973 6.08784 18.973H11.8176C12.4109 18.973 12.8919 19.4449 12.8919 20.027C12.8919 20.6092 12.4109 21.0811 11.8176 21.0811H6.08784C5.4945 21.0811 5.01351 20.6092 5.01351 20.027ZM15.0405 20.027C15.0405 19.4449 15.5215 18.973 16.1149 18.973H17.5473C18.1406 18.973 18.6216 19.4449 18.6216 20.027C18.6216 20.6092 18.1406 21.0811 17.5473 21.0811H16.1149C15.5215 21.0811 15.0405 20.6092 15.0405 20.027Z" fill="#8396A4"/>
</svg>
