<svg width="23" height="28" viewBox="0 0 23 28" fill="none" xmlns="http://www.w3.org/2000/svg">
<path fill-rule="evenodd" clip-rule="evenodd" d="M8.72531 1.11245C8.21363 1.31225 7.86538 1.88159 7.86538 2.51857C7.86538 3.03522 7.93067 3.16647 8.40385 3.60144C8.91336 4.06971 8.94231 4.13761 8.94231 4.86408V5.63178L6.25 6.92889V5.73897C6.25 4.98687 6.1905 4.49154 6.08846 4.39295C5.99315 4.30085 5.53465 4.23686 4.96954 4.23686C4.06479 4.23686 3.996 4.21566 3.71762 3.85184C3.324 3.33752 2.51483 3.09714 1.94473 3.32542C1.3185 3.57595 1 4.04721 1 4.72269C1 5.20982 1.0739 5.37488 1.45769 5.74573C1.83475 6.11007 2.01621 6.18798 2.48817 6.18798C2.98127 6.18798 3.13217 6.11566 3.57317 5.66768C4.024 5.20969 4.15862 5.14738 4.69654 5.14738H5.30769V6.49054C5.30769 7.77607 5.29248 7.84709 4.95217 8.149C4.75658 8.32239 4.33012 8.85855 4.00448 9.34061C1.79073 12.6167 2.08742 16.7578 4.75483 19.8145L5.30769 20.448V22.8376H4.6929C4.16696 22.8376 4.01512 22.7731 3.64237 22.3912C2.91517 21.6461 2.1064 21.6184 1.38662 22.3139C1.07108 22.6188 1 22.7994 1 23.2959C1 23.8143 1.06771 23.9696 1.45769 24.3465C1.83475 24.7108 2.01621 24.7887 2.48817 24.7887C2.98019 24.7887 3.13231 24.7161 3.56738 24.2743C4.05671 23.7771 4.10679 23.7587 5.06094 23.7215L6.04808 23.6831L6.08658 22.4149C6.10785 21.7174 6.15442 21.1466 6.19023 21.1466C6.22604 21.1466 6.49325 21.2917 6.78388 21.4691C7.07452 21.6464 7.664 21.9277 8.09369 22.0943L8.875 22.3972L8.91579 23.1513C8.9555 23.8856 8.94217 23.9183 8.41098 24.3921C7.91452 24.835 7.86565 24.9364 7.86835 25.5166C7.87292 26.4755 8.42081 27 9.41804 27C9.79981 27 10.0152 26.8998 10.3692 26.5577C10.7614 26.1788 10.8269 26.0269 10.8269 25.4971C10.8269 24.941 10.772 24.8298 10.2805 24.3915C9.771 23.9369 9.73694 23.8626 9.77571 23.2893L9.81731 22.6746L13.1827 22.693L13.2243 23.2985C13.2629 23.8612 13.2273 23.9384 12.7195 24.3915C12.228 24.8298 12.1731 24.941 12.1731 25.4971C12.1731 26.0269 12.2386 26.1788 12.6308 26.5577C12.9796 26.8948 13.2023 27 13.5667 27C14.5892 27 15.1346 26.4523 15.1346 25.4256C15.1346 24.9533 15.0603 24.8125 14.589 24.3921C14.0596 23.9198 14.0446 23.8834 14.0842 23.1643L14.125 22.4234L14.8005 22.1427C15.172 21.9883 15.7626 21.7052 16.113 21.5134L16.75 21.165V22.3004C16.75 23.0102 16.8106 23.4945 16.9115 23.592C17.0056 23.683 17.4571 23.7481 17.9938 23.7481C18.8929 23.7481 18.9267 23.7603 19.4268 24.2684C19.8678 24.7164 20.0187 24.7887 20.5118 24.7887C20.9838 24.7887 21.1653 24.7108 21.5423 24.3465C21.9323 23.9696 22 23.8143 22 23.2959C22 22.7994 21.9289 22.6188 21.6134 22.3139C20.8936 21.6184 20.0848 21.6461 19.3576 22.3912C18.9849 22.7731 18.833 22.8376 18.3071 22.8376H17.6923V20.4817L18.3713 19.676C19.7599 18.0285 20.4294 16.2008 20.4294 14.0575C20.4294 11.9134 19.7292 10.0265 18.3597 8.48095L17.683 7.71728L17.7596 5.21242L18.3298 5.17249C18.845 5.13646 18.9503 5.18354 19.4196 5.66027C19.8681 6.11579 20.0174 6.18798 20.5118 6.18798C20.9838 6.18798 21.1653 6.11007 21.5423 5.74573C21.9323 5.3689 22 5.21359 22 4.69511C22 4.19979 21.9288 4.01794 21.6163 3.71617C20.8953 3.01935 19.7697 3.11275 19.2261 3.9144C19.0317 4.20122 18.9137 4.23686 18.159 4.23686C16.8508 4.23686 16.8846 4.19823 16.8846 5.6924C16.8846 6.40612 16.8391 6.97026 16.7837 6.94593C16.7282 6.92161 16.092 6.61827 15.3702 6.27188L14.0577 5.64193V4.86915C14.0577 4.13683 14.0858 4.07049 14.5962 3.60144C15.0734 3.1627 15.1346 3.03783 15.1346 2.50309C15.1346 2.02012 15.0561 1.81473 14.7418 1.47484C14.3942 1.09893 14.2689 1.05002 13.6538 1.05002C13.0388 1.05002 12.9135 1.09893 12.5659 1.47484C12.2516 1.81473 12.1731 2.02012 12.1731 2.50309C12.1731 3.03783 12.2343 3.1627 12.7115 3.60144C13.2073 4.05709 13.25 4.15088 13.25 4.78447V5.47257H9.75V4.78447C9.75 4.15088 9.79267 4.05709 10.2885 3.60144C10.7587 3.1692 10.8269 3.0334 10.8269 2.52988C10.8269 1.873 10.5795 1.46001 10.0177 1.17931C9.589 0.965079 9.15971 0.942836 8.72531 1.11245ZM9.80788 2.18219C9.9849 2.42634 9.98867 2.50816 9.83306 2.73501C9.58913 3.09051 9.24842 3.13876 8.93235 2.86235C8.61506 2.5849 8.60779 2.44091 8.89586 2.13341C9.19485 1.81408 9.55508 1.83333 9.80788 2.18219ZM14.1397 2.22408C14.3486 2.53222 14.3471 2.56877 14.1165 2.81514C13.82 3.13174 13.414 3.09753 13.1663 2.73501C13.0115 2.50855 13.0154 2.42595 13.1921 2.18219C13.4679 1.80172 13.8652 1.81928 14.1397 2.22408ZM2.92944 4.37539C3.29963 4.88619 2.86065 5.41144 2.22608 5.21684C1.6821 5.05009 1.89842 4.10678 2.48077 4.10678C2.6205 4.10678 2.82229 4.22762 2.92944 4.37539ZM20.9679 4.37539C21.3381 4.88619 20.8991 5.41144 20.2645 5.21684C19.7206 5.05009 19.9369 4.10678 20.5192 4.10678C20.659 4.10678 20.8608 4.22762 20.9679 4.37539ZM13.5865 6.66016C14.8927 6.98378 15.9135 7.58226 17.0997 8.71964C18.7089 10.2627 19.4423 11.9415 19.4423 14.0815C19.4423 17.3942 17.2377 20.3227 13.9453 21.3836C13.1006 21.6559 12.6572 21.7161 11.5 21.7161C10.3428 21.7161 9.89942 21.6559 9.05471 21.3836C3.50412 19.5952 1.72235 12.9302 5.71033 8.87351C7.85946 6.68734 10.5944 5.91873 13.5865 6.66016ZM10.4258 8.822C9.4494 9.30406 9.08702 10.0222 9.08015 11.4885C9.07706 12.1553 9.06763 12.1714 8.68506 12.1714C8.41273 12.1714 8.18685 12.2936 7.94467 12.5717L7.59615 12.9718V15.5698C7.59615 18.2735 7.68904 18.7923 8.20798 18.9846C8.49215 19.09 14.5078 19.09 14.792 18.9846C15.3084 18.7932 15.4038 18.2703 15.4038 15.631C15.4038 14.0487 15.3476 12.9749 15.2544 12.7772C15.0901 12.4289 14.7107 12.2028 14.1923 12.1444C13.8713 12.1081 13.8527 12.0587 13.7885 11.0658C13.7063 9.79575 13.4154 9.25463 12.5877 8.83163C11.843 8.45103 11.183 8.44817 10.4258 8.822ZM12.2592 9.75985C12.6724 10.0395 12.867 10.6096 12.8203 11.4035L12.7788 12.1064L10.1538 12.1808V11.2556C10.1538 10.4064 10.1862 10.2991 10.5473 9.95015C10.9949 9.51765 11.7735 9.43115 12.2592 9.75985ZM14.3269 18.1549H8.67308V13.082H14.3269V18.1549ZM11.0433 15.3689C10.9376 15.6348 10.9376 16.6426 11.0433 16.9085C11.1395 17.151 11.6462 17.1812 11.8769 16.9582C12.0865 16.7557 12.0865 15.5218 11.8769 15.3193C11.6462 15.0963 11.1395 15.1265 11.0433 15.3689ZM2.9425 22.9942C3.11965 23.2386 3.12342 23.3199 2.9674 23.547C2.86671 23.6934 2.64783 23.8132 2.48077 23.8132C2.31371 23.8132 2.09483 23.6934 1.99413 23.547C1.83812 23.3199 1.84188 23.2386 2.01904 22.9942C2.13333 22.8366 2.34104 22.7075 2.48077 22.7075C2.6205 22.7075 2.82821 22.8366 2.9425 22.9942ZM20.981 22.9942C21.1581 23.2386 21.1619 23.3199 21.0059 23.547C20.9052 23.6934 20.6863 23.8132 20.5192 23.8132C20.3522 23.8132 20.1333 23.6934 20.0326 23.547C19.8766 23.3199 19.8803 23.2386 20.0575 22.9942C20.1718 22.8366 20.3795 22.7075 20.5192 22.7075C20.659 22.7075 20.8667 22.8366 20.981 22.9942ZM9.7469 25.176C10.1573 25.5726 9.87883 26.0832 9.2499 26.0875C8.80446 26.0905 8.59944 25.6321 8.86854 25.2353C9.12861 24.8517 9.39287 24.8339 9.7469 25.176ZM14.1315 25.2353C14.4006 25.6321 14.1955 26.0905 13.7501 26.0875C13.1212 26.0832 12.8427 25.5726 13.2531 25.176C13.6071 24.8339 13.8714 24.8517 14.1315 25.2353Z" fill="#8396A4" stroke="#8396A4" stroke-width="0.25"/>
</svg>
