<svg width="21" height="22" viewBox="0 0 21 22" fill="none" xmlns="http://www.w3.org/2000/svg">
<path d="M19.5 15V7.00002C19.4996 6.6493 19.4071 6.30483 19.2315 6.00119C19.056 5.69754 18.8037 5.44539 18.5 5.27002L11.5 1.27002C11.196 1.09449 10.8511 1.00208 10.5 1.00208C10.1489 1.00208 9.80404 1.09449 9.5 1.27002L2.5 5.27002C2.19626 5.44539 1.94398 5.69754 1.76846 6.00119C1.59294 6.30483 1.50036 6.6493 1.5 7.00002V15C1.50036 15.3508 1.59294 15.6952 1.76846 15.9989C1.94398 16.3025 2.19626 16.5547 2.5 16.73L9.5 20.73C9.80404 20.9056 10.1489 20.998 10.5 20.998C10.8511 20.998 11.196 20.9056 11.5 20.73L18.5 16.73C18.8037 16.5547 19.056 16.3025 19.2315 15.9989C19.4071 15.6952 19.4996 15.3508 19.5 15Z" stroke="black" stroke-opacity="0.6" stroke-width="2" stroke-linecap="round" stroke-linejoin="round"/>
</svg>
