<svg width="144" height="49" viewBox="0 0 144 49" fill="none" xmlns="http://www.w3.org/2000/svg">
<g clip-path="url(#clip0_805_2185)">
<path d="M34.8909 46.8647L41.0927 33.0392L32.1514 14.2854H39.4253L44.6012 25.8871L49.3075 14.2854H56.1951L41.736 46.8647H34.8909Z" fill="#103D5A"/>
<path d="M58.2026 46.9081V14.2854H64.4876V16.5055C65.386 15.109 67.6966 13.7577 70.7338 13.7577C76.8949 13.7577 80.616 18.5559 80.616 25.0541C80.616 31.6842 76.4235 36.4372 70.4768 36.4372C67.7392 36.4372 65.6854 35.4779 64.702 34.2567V46.9043L58.2026 46.9081ZM69.4121 19.7376C66.887 19.7376 64.6188 21.4808 64.6188 25.1012C64.6188 28.682 66.887 30.51 69.4121 30.51C71.9778 30.51 74.246 28.7215 74.246 25.1012C74.246 21.4808 71.9778 19.7376 69.4121 19.7376Z" fill="#103D5A"/>
<path d="M90.0287 35.9622H83.5274V4.38362H90.0287V15.68C91.3559 14.3287 93.5797 13.7181 95.4615 13.7181C101.024 13.7181 103.504 17.6004 103.504 22.3534V35.9622H97.0031V23.488C97.0031 21.3508 95.894 19.7376 93.5372 19.7376C91.4834 19.7376 90.1581 21.2189 90.025 23.226L90.0287 35.9622Z" fill="#103D5A"/>
<path d="M127.032 29.7241C126.005 33.4745 122.626 36.6162 117.235 36.6162C111.374 36.6162 106.155 32.3419 106.155 25.0578C106.155 18.0848 111.246 13.6314 116.764 13.6314C123.352 13.6314 127.417 17.7776 127.417 24.7507C127.424 25.4365 127.38 26.1219 127.287 26.8011H112.486C112.614 29.2511 114.797 30.9887 117.32 30.9887C119.673 30.9887 120.999 29.858 121.598 28.1524L127.032 29.7241ZM121.128 22.5362C121.043 20.8778 119.93 18.8725 116.849 18.8725C114.111 18.8725 112.743 20.923 112.614 22.5362H121.128Z" fill="#103D5A"/>
<path d="M143.843 20.8269C143.169 20.6729 142.48 20.5996 141.789 20.6083C139.179 20.6083 136.826 22.1782 136.826 26.4977V35.9622H130.325V14.2892H136.61V17.2103C137.719 14.7603 140.418 14.0705 142.129 14.0705C142.707 14.0642 143.283 14.1377 143.841 14.2892L143.843 20.8269Z" fill="#103D5A"/>
<path d="M18.1783 1.01359e-06C14.9515 -0.00108679 11.7826 0.873434 8.9969 2.53377C6.21121 4.19412 3.90913 6.58044 2.32709 9.44771C0.745051 12.315 -0.0599676 15.5599 -0.00530196 18.8492C0.0493634 22.1386 0.961747 25.3537 2.63816 28.1648C4.31457 30.9757 6.6946 33.2812 9.53386 34.8443C12.3731 36.4076 15.5693 37.1722 18.7943 37.0595C22.0192 36.9469 25.1565 35.9615 27.8844 34.2039C30.6121 32.4465 32.8319 29.9807 34.3159 27.0593L27.8461 23.6482C26.7298 25.8469 24.9247 27.6025 22.7179 28.636C20.511 29.6693 18.0288 29.9215 15.6653 29.3521C13.3019 28.7828 11.1927 27.4249 9.67281 25.4938C8.1529 23.5628 7.30938 21.1693 7.2762 18.6936C7.24302 16.2179 8.02206 13.8019 9.48964 11.8292C10.9572 9.85648 13.0292 8.44023 15.3765 7.80532C17.7238 7.17042 20.2119 7.35326 22.4456 8.3248C24.6794 9.29636 26.5307 11.0009 27.7056 13.1678L34.0756 9.57762C32.5053 6.67996 30.203 4.26364 27.4076 2.57945C24.6121 0.895275 21.4254 0.00463823 18.1783 1.01359e-06Z" fill="#103D5A"/>
<path d="M100.136 42.5791C99.8162 41.7178 99.2254 40.9889 98.4561 40.506C97.8403 40.1197 97.1434 39.8879 96.4227 39.8295C95.6432 39.7452 94.8551 39.8479 94.1213 40.1291C93.1345 40.5009 92.3276 41.248 91.8698 42.2135C91.5945 42.7875 91.4367 43.4127 91.4058 44.051C91.352 44.7754 91.4522 45.5031 91.6997 46.1844C92.0337 47.1223 92.6905 47.9047 93.5482 48.3856C94.1253 48.7103 94.7649 48.9033 95.4226 48.951C96.2724 49.0375 97.1299 48.9046 97.9163 48.5646C98.8189 48.1749 99.5517 47.4635 99.9774 46.5632C100.26 45.9433 100.42 45.2722 100.447 44.5889C100.473 43.9057 100.367 43.2238 100.133 42.5829L100.136 42.5791ZM97.7462 46.5048C97.6706 46.9292 97.5283 47.3383 97.3248 47.7166C97.1604 48.0368 96.9018 48.2965 96.5853 48.4591C96.258 48.6176 95.8862 48.6532 95.5356 48.5597C95.1849 48.4665 94.8779 48.2499 94.6684 47.9484C94.4337 47.6073 94.2655 47.2234 94.173 46.8176C94.0727 46.4056 94.007 45.9857 93.9771 45.5625C93.9201 44.8602 93.9139 44.1548 93.9586 43.4517C93.9843 42.8375 94.088 42.2293 94.2673 41.6425C94.3667 41.3264 94.5172 41.0296 94.7128 40.7642C94.8566 40.5818 95.0383 40.434 95.2448 40.3313C95.4513 40.2288 95.6774 40.1742 95.9069 40.1711C96.1365 40.1679 96.3641 40.2167 96.573 40.3136C96.782 40.4107 96.9674 40.5535 97.1159 40.7322C97.3482 41.0341 97.5209 41.379 97.6242 41.748C97.798 42.3614 97.8961 42.9945 97.9163 43.6326C97.9292 43.8851 97.9329 44.1396 97.9385 44.2903C97.9466 45.0331 97.8821 45.7748 97.7462 46.5048Z" fill="#103D5A"/>
<path d="M106.371 48.3705H104.05V40.9847L104.883 40.1498V39.9633H100.876V40.1404L101.717 40.9847V47.8881L100.876 48.7324V48.9077H103.88H104.052H108.553V45.1592H108.392L106.371 48.3705Z" fill="#103D5A"/>
<path d="M90.1858 47.8881V40.9847L91.0268 40.1423V39.9633H87.2263V40.1423L88.0674 40.9847V44.0246H85.0506V40.9847L85.8917 40.1423V39.9633H82.0911V40.1423L82.9322 40.9847V47.8881L82.0911 48.7305V48.9077H85.8917V48.7305L85.0506 47.8881V44.5617H88.0674V47.8881L87.2263 48.7305V48.9077H91.0268V48.7305L90.1858 47.8881Z" fill="#103D5A"/>
<path d="M116.782 39.9633H113.095H112.163H108.475V43.6307H108.658L110.63 40.4947H111.477V47.8994L110.654 48.723V48.9077H114.616V48.7362L113.78 47.8994V40.4947H114.627L116.599 43.6307H116.782V39.9633Z" fill="#103D5A"/>
<path d="M69.6431 46.959V40.2045H71.0055V42.7619C71.1903 42.4717 71.7024 42.2097 72.3235 42.2097C73.6415 42.2097 74.4382 43.2368 74.4382 44.6277C74.4382 46.0185 73.5417 47.0626 72.2699 47.0626C71.6654 47.0626 71.1977 46.7912 70.987 46.4369V46.959H69.6431ZM72.0166 43.4894C71.4769 43.4894 70.9815 43.8531 70.9815 44.6371C70.9815 45.4211 71.4769 45.7943 72.0166 45.7943C72.5564 45.7943 73.0407 45.4173 73.0407 44.6371C73.0407 43.8569 72.5712 43.4894 72.0166 43.4894Z" fill="#103D5A"/>
<path d="M75.4272 48.7418L76.4623 46.3352L74.5491 42.3247H76.1037L77.2128 44.8067L78.2184 42.3247H79.6973L76.8967 48.7437L75.4272 48.7418Z" fill="#103D5A"/>
</g>
<defs>
<clipPath id="clip0_805_2185">
<rect width="144" height="49" fill="white"/>
</clipPath>
</defs>
</svg>
