<svg width="27" height="24" viewBox="0 0 27 24" fill="none" xmlns="http://www.w3.org/2000/svg">
<path d="M24.6612 9.7707C23.7147 9.7707 22.9474 10.5381 22.9474 11.4846V13.0305C22.9474 15.1321 21.2376 16.8419 19.1359 16.8419H9.77206V14.1249C9.77206 13.6816 9.27839 13.4167 8.90895 13.6617L2.22997 18.0925C1.89857 18.3124 1.89857 18.7991 2.22997 19.0189L8.90895 23.4497C9.27844 23.6948 9.77206 23.4299 9.77206 22.9865V20.2696H19.1359C23.1276 20.2696 26.3751 17.0221 26.3751 13.0304V11.4846C26.3752 10.5381 25.6078 9.7707 24.6612 9.7707V9.7707ZM24.4127 5.49617L17.7337 1.06538C17.3642 0.820294 16.8706 1.08518 16.8706 1.52859V4.24545H6.81713C6.59295 4.24545 6.37903 4.28896 6.18281 4.36722C2.82121 4.99108 0.267578 7.9451 0.267578 11.4846V13.0305C0.267578 13.9771 1.03493 14.7444 1.98145 14.7444C2.92801 14.7444 3.69537 13.977 3.69537 13.0305V11.4846C3.69537 9.38303 5.40516 7.67324 7.50675 7.67324H16.8706V10.3901C16.8706 10.8335 17.3642 11.0984 17.7337 10.8533L24.4127 6.42252C24.7441 6.20264 24.7441 5.716 24.4127 5.49617V5.49617Z" fill="#13D0CA"/>
</svg>
