<svg width="26" height="26" viewBox="0 0 26 26" fill="none" xmlns="http://www.w3.org/2000/svg">
<path d="M3.25 4.875C2.35254 4.875 1.625 5.60254 1.625 6.5C1.625 7.39746 2.35254 8.125 3.25 8.125H22.75C23.6475 8.125 24.375 7.39746 24.375 6.5C24.375 5.60254 23.6475 4.875 22.75 4.875H3.25ZM3.25 11.375C2.35254 11.375 1.625 12.1025 1.625 13C1.625 13.8975 2.35254 14.625 3.25 14.625H22.75C23.6475 14.625 24.375 13.8975 24.375 13C24.375 12.1025 23.6475 11.375 22.75 11.375H3.25ZM3.25 17.875C2.35254 17.875 1.625 18.6025 1.625 19.5C1.625 20.3975 2.35254 21.125 3.25 21.125H22.75C23.6475 21.125 24.375 20.3975 24.375 19.5C24.375 18.6025 23.6475 17.875 22.75 17.875H3.25Z" fill="#00324E"/>
</svg>
