<svg width="24" height="18" viewBox="0 0 24 18" fill="none" xmlns="http://www.w3.org/2000/svg">
<path d="M2.25 0.875C1.35254 0.875 0.625 1.60254 0.625 2.5C0.625 3.39746 1.35254 4.125 2.25 4.125H21.75C22.6475 4.125 23.375 3.39746 23.375 2.5C23.375 1.60254 22.6475 0.875 21.75 0.875H2.25ZM2.25 7.375C1.35254 7.375 0.625 8.10254 0.625 9C0.625 9.89746 1.35254 10.625 2.25 10.625H21.75C22.6475 10.625 23.375 9.89746 23.375 9C23.375 8.10254 22.6475 7.375 21.75 7.375H2.25ZM2.25 13.875C1.35254 13.875 0.625 14.6025 0.625 15.5C0.625 16.3975 1.35254 17.125 2.25 17.125H21.75C22.6475 17.125 23.375 16.3975 23.375 15.5C23.375 14.6025 22.6475 13.875 21.75 13.875H2.25Z" fill="#00324E"/>
</svg>
