<svg width="24" height="6" viewBox="0 0 24 6" fill="none" xmlns="http://www.w3.org/2000/svg">
<path d="M2.83101 5.7887C2.1026 5.7887 1.40402 5.49934 0.888959 4.98428C0.373894 4.46921 0.0845337 3.77064 0.0845337 3.04222C0.0845337 2.31381 0.373894 1.61524 0.888959 1.10017C1.40402 0.585106 2.1026 0.295746 2.83101 0.295746C3.55942 0.295746 4.258 0.585106 4.77307 1.10017C5.28813 1.61524 5.57749 2.31381 5.57749 3.04222C5.57749 3.77064 5.28813 4.46921 4.77307 4.98428C4.258 5.49934 3.55942 5.7887 2.83101 5.7887ZM11.9859 5.7887C11.2575 5.7887 10.559 5.49934 10.0439 4.98428C9.52882 4.46921 9.23946 3.77064 9.23946 3.04222C9.23946 2.31381 9.52882 1.61524 10.0439 1.10017C10.559 0.585106 11.2575 0.295746 11.9859 0.295746C12.7144 0.295746 13.4129 0.585106 13.928 1.10017C14.4431 1.61524 14.7324 2.31381 14.7324 3.04222C14.7324 3.77064 14.4431 4.46921 13.928 4.98428C13.4129 5.49934 12.7144 5.7887 11.9859 5.7887ZM21.1409 5.7887C20.4125 5.7887 19.7139 5.49934 19.1988 4.98428C18.6838 4.46921 18.3944 3.77064 18.3944 3.04222C18.3944 2.31381 18.6838 1.61524 19.1988 1.10017C19.7139 0.585106 20.4125 0.295746 21.1409 0.295746C21.8693 0.295746 22.5679 0.585106 23.0829 1.10017C23.598 1.61524 23.8874 2.31381 23.8874 3.04222C23.8874 3.77064 23.598 4.46921 23.0829 4.98428C22.5679 5.49934 21.8693 5.7887 21.1409 5.7887Z" fill="#13D0CA"/>
</svg>
