<svg width="23" height="24" viewBox="0 0 23 24" fill="none" xmlns="http://www.w3.org/2000/svg">
<path d="M11.601 5.7319C11.2477 5.7319 10.9089 5.87225 10.659 6.12208C10.4092 6.3719 10.2689 6.71074 10.2689 7.06404V21.7176C10.2689 22.0709 10.4092 22.4098 10.659 22.6596C10.9089 22.9094 11.2477 23.0498 11.601 23.0498C11.9543 23.0498 12.2931 22.9094 12.543 22.6596C12.7928 22.4098 12.9332 22.0709 12.9332 21.7176V7.06404C12.9332 6.71074 12.7928 6.3719 12.543 6.12208C12.2931 5.87225 11.9543 5.7319 11.601 5.7319ZM20.926 0.40332C20.5727 0.40332 20.2339 0.543671 19.9841 0.793497C19.7342 1.04332 19.5939 1.38216 19.5939 1.73547V21.7176C19.5939 22.0709 19.7342 22.4098 19.9841 22.6596C20.2339 22.9094 20.5727 23.0498 20.926 23.0498C21.2793 23.0498 21.6182 22.9094 21.868 22.6596C22.1178 22.4098 22.2582 22.0709 22.2582 21.7176V1.73547C22.2582 1.38216 22.1178 1.04332 21.868 0.793497C21.6182 0.543671 21.2793 0.40332 20.926 0.40332ZM2.27599 11.0605C1.92269 11.0605 1.58385 11.2008 1.33402 11.4507C1.0842 11.7005 0.943848 12.0393 0.943848 12.3926V21.7176C0.943848 22.0709 1.0842 22.4098 1.33402 22.6596C1.58385 22.9094 1.92269 23.0498 2.27599 23.0498C2.6293 23.0498 2.96814 22.9094 3.21796 22.6596C3.46779 22.4098 3.60814 22.0709 3.60814 21.7176V12.3926C3.60814 12.0393 3.46779 11.7005 3.21796 11.4507C2.96814 11.2008 2.6293 11.0605 2.27599 11.0605Z" fill="#00324E"/>
</svg>
