<svg width="23" height="14" viewBox="0 0 23 14" fill="none" xmlns="http://www.w3.org/2000/svg">
<path d="M0.31815 13.3123C0.10605 13.1002 0 12.8349 0 12.5164C0 12.1986 0.10605 11.924 0.31815 11.6926L7.25959 4.69335C7.37528 4.59694 7.50062 4.51981 7.63559 4.46197C7.77056 4.40412 7.91517 4.3752 8.06943 4.3752C8.22368 4.3752 8.37331 4.40412 8.51831 4.46197C8.66254 4.51981 8.78286 4.59694 8.87926 4.69335L12.6971 8.51114L18.713 2.55307H16.8619C16.5341 2.55307 16.2596 2.44239 16.0382 2.22104C15.8161 1.99891 15.705 1.72396 15.705 1.39617C15.705 1.06837 15.8161 0.793417 16.0382 0.57129C16.2596 0.349935 16.5341 0.239258 16.8619 0.239258H21.4896C21.8173 0.239258 22.0919 0.349935 22.3133 0.57129C22.5354 0.793417 22.6465 1.06837 22.6465 1.39617V6.02379C22.6465 6.35158 22.5354 6.62616 22.3133 6.84751C22.0919 7.06964 21.8173 7.1807 21.4896 7.1807C21.1618 7.1807 20.8872 7.06964 20.6658 6.84751C20.4437 6.62616 20.3326 6.35158 20.3326 6.02379V4.17274L13.5069 10.9985C13.3912 11.1142 13.2659 11.1959 13.1309 11.2438C12.9959 11.2924 12.8513 11.3166 12.6971 11.3166C12.5428 11.3166 12.3982 11.2924 12.2632 11.2438C12.1282 11.1959 12.0029 11.1142 11.8872 10.9985L8.06943 7.1807L1.9089 13.3412C1.6968 13.5533 1.43649 13.6594 1.12798 13.6594C0.819476 13.6594 0.549531 13.5437 0.31815 13.3123Z" fill="#00324E"/>
</svg>
