<svg width="18" height="23" viewBox="0 0 18 23" fill="none" xmlns="http://www.w3.org/2000/svg">
<path d="M17.7448 4.4523C17.6973 4.31503 17.6278 4.19035 17.5401 4.08543L14.7092 0.688458C14.6222 0.58031 14.5181 0.494047 14.403 0.434703C14.2878 0.375359 14.164 0.344123 14.0387 0.342816C13.9134 0.34151 13.7892 0.370159 13.6732 0.427094C13.5572 0.484028 13.4519 0.568106 13.3633 0.674423C13.2747 0.78074 13.2046 0.907166 13.1572 1.04632C13.1097 1.18548 13.0859 1.33459 13.087 1.48494C13.088 1.63529 13.1141 1.78387 13.1635 1.92202C13.213 2.06016 13.2849 2.18511 13.375 2.28956L14.5951 3.75366H5.54969C4.29839 3.75366 3.09835 4.35015 2.21355 5.41191C1.32875 6.47366 0.831675 7.91372 0.831675 9.41527V11.6799C0.831675 11.9802 0.93109 12.2682 1.10805 12.4806C1.28501 12.6929 1.52502 12.8122 1.77528 12.8122C2.02554 12.8122 2.26555 12.6929 2.44251 12.4806C2.61947 12.2682 2.71888 11.9802 2.71888 11.6799V9.41527C2.71888 8.51434 3.01713 7.65031 3.548 7.01325C4.07888 6.3762 4.79891 6.0183 5.54969 6.0183H14.5951L13.375 7.4824C13.2031 7.69596 13.108 7.98198 13.1101 8.27887C13.1123 8.57577 13.2115 8.85977 13.3865 9.06971C13.5614 9.27965 13.7981 9.39874 14.0455 9.40132C14.2929 9.4039 14.5313 9.28976 14.7092 9.0835L17.5401 5.68653C17.6278 5.58152 17.6974 5.45674 17.7448 5.31936C17.7923 5.18197 17.8167 5.03469 17.8165 4.88598M17.7448 4.4523C17.792 4.58871 17.8163 4.7349 17.8165 4.88258L17.7448 4.4523ZM0.903389 18.0402C0.831574 18.2471 0.812697 18.4749 0.849162 18.6947C0.885627 18.9145 0.975784 19.1163 1.10815 19.2744L3.93896 22.6714C4.11692 22.8776 4.35528 22.9918 4.60269 22.9892C4.8501 22.9866 5.08677 22.8675 5.26172 22.6576C5.43667 22.4476 5.53591 22.1636 5.53806 21.8668C5.54021 21.5699 5.4451 21.2838 5.27321 21.0703L4.05313 19.6062H13.0985C14.3498 19.6062 15.5499 19.0097 16.4347 17.9479C17.3195 16.8862 17.8165 15.4461 17.8165 13.9446V11.6799C17.8165 11.3796 17.7171 11.0916 17.5402 10.8792C17.3632 10.6669 17.1232 10.5476 16.8729 10.5476C16.6227 10.5476 16.3827 10.6669 16.2057 10.8792C16.0287 11.0916 15.9293 11.3796 15.9293 11.6799V13.9446C15.9293 14.8455 15.6311 15.7095 15.1002 16.3466C14.5693 16.9836 13.8493 17.3415 13.0985 17.3415H4.05313L5.27321 15.8774C5.36334 15.773 5.43522 15.648 5.48468 15.5099C5.53413 15.3717 5.56016 15.2232 5.56125 15.0728C5.56234 14.9225 5.53846 14.7734 5.49102 14.6342C5.44357 14.495 5.37351 14.3686 5.28491 14.2623C5.19631 14.156 5.09096 14.0719 4.97499 14.015C4.85903 13.958 4.73477 13.9294 4.60948 13.9307C4.48419 13.932 4.36037 13.9632 4.24525 14.0226C4.13012 14.0819 4.026 14.1682 3.93896 14.2763L1.10815 17.6733M0.903389 18.0402C0.950509 17.9039 1.01943 17.78 1.10626 17.6756L0.903389 18.0402Z" fill="#00324E"/>
</svg>
