<svg width="15" height="24" viewBox="0 0 15 24" fill="none" xmlns="http://www.w3.org/2000/svg">
<path fill-rule="evenodd" clip-rule="evenodd" d="M8.5 1C8.5 0.447715 8.05228 0 7.5 0C6.94772 0 6.5 0.447715 6.5 1V4H5C3.80653 4 2.66193 4.47411 1.81802 5.31802C0.974106 6.16193 0.5 7.30653 0.5 8.5C0.5 9.69347 0.974106 10.8381 1.81802 11.682C2.66193 12.5259 3.80653 13 5 13H6.5V18H1.5C0.947715 18 0.5 18.4477 0.5 19C0.5 19.5523 0.947715 20 1.5 20H6.5V23C6.5 23.5523 6.94772 24 7.5 24C8.05228 24 8.5 23.5523 8.5 23V20H10C11.1935 20 12.3381 19.5259 13.182 18.682C14.0259 17.8381 14.5 16.6935 14.5 15.5C14.5 14.3065 14.0259 13.1619 13.182 12.318C12.3381 11.4741 11.1935 11 10 11H8.5V6H12.5C13.0523 6 13.5 5.55228 13.5 5C13.5 4.44772 13.0523 4 12.5 4H8.5V1ZM6.5 6H5C4.33696 6 3.70107 6.26339 3.23223 6.73223C2.76339 7.20107 2.5 7.83696 2.5 8.5C2.5 9.16304 2.76339 9.79893 3.23223 10.2678C3.70107 10.7366 4.33696 11 5 11H6.5V6ZM8.5 13V18H10C10.663 18 11.2989 17.7366 11.7678 17.2678C12.2366 16.7989 12.5 16.163 12.5 15.5C12.5 14.837 12.2366 14.2011 11.7678 13.7322C11.2989 13.2634 10.663 13 10 13H8.5Z" fill="#113650"/>
</svg>
