<svg width="26" height="22" viewBox="0 0 26 22" fill="none" xmlns="http://www.w3.org/2000/svg">
<path d="M21.6451 5.52446C21.7281 5.52446 21.8078 5.4913 21.8665 5.43228C21.9253 5.37327 21.9583 5.29322 21.9583 5.20976V4.1618C21.9579 3.88848 21.8497 3.62644 21.6574 3.43317C21.465 3.2399 21.2043 3.13118 20.9322 3.13084H19.2491L18.8652 1.99226C18.8391 1.91483 18.784 1.85064 18.7116 1.81328C18.6393 1.77593 18.5553 1.76833 18.4774 1.79211L9.36157 4.57658C9.28612 4.60424 9.2241 4.65991 9.18827 4.73214C9.15244 4.80437 9.14553 4.88765 9.16897 4.96484C9.19241 5.04202 9.24441 5.10724 9.31427 5.14707C9.38412 5.18689 9.46651 5.19829 9.54448 5.17892L18.3697 2.48256L19.2109 4.97814C19.2376 5.05718 19.2944 5.12234 19.3689 5.15928C19.4434 5.19623 19.5294 5.20193 19.6081 5.17514C19.6867 5.14835 19.7516 5.09126 19.7883 5.01642C19.8251 4.94159 19.8308 4.85514 19.8041 4.7761L19.4615 3.75962H20.9329C21.1534 3.75962 21.3325 3.93963 21.3325 4.16117V5.20976C21.3319 5.38347 21.4722 5.52446 21.6451 5.52446Z" fill="#13D0CA" stroke="#13D0CA"/>
<path d="M24.1449 10.2446C24.0619 10.2446 23.9822 10.2778 23.9235 10.3368C23.8647 10.3958 23.8317 10.4759 23.8317 10.5593C23.8317 10.6428 23.8647 10.7228 23.9235 10.7818C23.9822 10.8409 24.0619 10.874 24.1449 10.874C24.3648 10.874 24.4581 10.9678 24.4581 11.1887V14.9651C24.4581 15.186 24.3648 15.2798 24.1449 15.2798H19.1338C18.9139 15.2798 18.8206 15.186 18.8206 14.9651V11.8181C18.8206 11.5972 18.9139 11.5034 19.1338 11.5034H22.8921C22.9752 11.5034 23.0549 11.4703 23.1136 11.4112C23.1723 11.3522 23.2053 11.2722 23.2053 11.1887V7.41231C23.2053 6.83893 22.8364 6.46821 22.2657 6.46821H3.16085C2.38852 6.46821 1.90807 5.98546 1.90807 5.20941C1.90807 4.43336 2.38852 3.9506 3.16085 3.9506H6.34041L4.44495 4.57875C4.40448 4.59048 4.36677 4.61029 4.33409 4.637C4.30141 4.66371 4.27443 4.69678 4.25477 4.73421C4.2351 4.77164 4.22315 4.81268 4.21963 4.85486C4.21612 4.89704 4.22111 4.9395 4.2343 4.9797C4.2475 5.0199 4.26863 5.05701 4.29643 5.08881C4.32423 5.12061 4.35813 5.14645 4.3961 5.16478C4.43407 5.18312 4.47533 5.19356 4.51741 5.1955C4.5595 5.19743 4.60154 5.19082 4.64101 5.17605L15.9906 1.41663C16.0296 1.40366 16.0658 1.38307 16.0969 1.35606C16.1281 1.32905 16.1537 1.29613 16.1722 1.2592C16.1907 1.22226 16.2017 1.18202 16.2048 1.14078C16.2078 1.09955 16.2027 1.05811 16.1898 1.01885C16.1769 0.979592 16.1564 0.943271 16.1295 0.911965C16.1026 0.880659 16.0698 0.85498 16.0331 0.836394C15.9963 0.817809 15.9563 0.806681 15.9152 0.803645C15.8742 0.80061 15.833 0.805726 15.7939 0.818703L8.21457 3.33001C8.20016 3.3275 8.18701 3.3212 8.17197 3.3212H3.16085C2.03711 3.3212 1.28168 4.08026 1.28168 5.20941V19.0562C1.28168 20.1854 2.03711 20.9444 3.16085 20.9444H22.2657C22.8364 20.9444 23.2053 20.5737 23.2053 20.0003V16.8533C23.2053 16.7699 23.1723 16.6898 23.1136 16.6308C23.0549 16.5718 22.9752 16.5386 22.8921 16.5386C22.8091 16.5386 22.7294 16.5718 22.6707 16.6308C22.6119 16.6898 22.5789 16.7699 22.5789 16.8533V20.0003C22.5789 20.2213 22.4856 20.315 22.2657 20.315H3.16085C2.38852 20.315 1.90807 19.8323 1.90807 19.0562V6.66458C2.22941 6.93711 2.65473 7.09761 3.16085 7.09761H22.2657C22.4856 7.09761 22.5789 7.19139 22.5789 7.41231V10.874H19.1338C18.5632 10.874 18.1942 11.2447 18.1942 11.8181V14.9651C18.1942 15.5385 18.5632 15.9092 19.1338 15.9092H24.1449C24.7156 15.9092 25.0845 15.5385 25.0845 14.9651V11.1887C25.0845 10.6153 24.7156 10.2446 24.1449 10.2446Z" fill="#13D0CA" stroke="#13D0CA"/>
<path d="M21.3262 14.0213C21.6721 14.0213 21.9525 13.7396 21.9525 13.3919C21.9525 13.0443 21.6721 12.7625 21.3262 12.7625C20.9802 12.7625 20.6998 13.0443 20.6998 13.3919C20.6998 13.7396 20.9802 14.0213 21.3262 14.0213Z" fill="#13D0CA"/>
</svg>

